<?xml version="1.0" encoding="iso-8859-1"?>
<!-- Generator: Adobe Illustrator 19.0.0, SVG Export Plug-In . SVG Version: 6.00 Build 0)  -->
<svg version="1.1" id="Capa_1" xmlns="http://www.w3.org/2000/svg" xmlns:xlink="http://www.w3.org/1999/xlink" x="0px" y="0px"
	 viewBox="0 0 512 512" style="enable-background:new 0 0 512 512;" xml:space="preserve">
<g>
	<g>
		<path d="M256,442.014c-5.523,0-10,4.477-10,10v0.131c0,5.523,4.477,10,10,10s10-4.477,10-10v-0.131
			C266,446.491,261.523,442.014,256,442.014z"/>
	</g>
</g>
<g>
	<g>
		<path d="M223.679,190.404h-2v-2c0-5.523-4.477-10-10-10s-10,4.477-10,10v2h-2c-5.523,0-10,4.477-10,10s4.477,10,10,10h2v2
			c0,5.523,4.477,10,10,10s10-4.477,10-10v-2h2c5.523,0,10-4.477,10-10S229.202,190.404,223.679,190.404z"/>
	</g>
</g>
<g>
	<g>
		<path d="M312.332,190.404h-2v-2c0-5.523-4.477-10-10-10s-10,4.477-10,10v2h-2c-5.523,0-10,4.477-10,10s4.477,10,10,10h2v2
			c0,5.523,4.477,10,10,10s10-4.477,10-10v-2h2c5.523,0,10-4.477,10-10S317.855,190.404,312.332,190.404z"/>
	</g>
</g>
<g>
	<g>
		<path d="M256.005,212.298c-15.439,0-28,12.561-28,28c0,15.439,12.561,28,28,28s28-12.561,28-28
			C284.005,224.859,271.444,212.298,256.005,212.298z M256.005,248.298c-4.411,0-8-3.589-8-8c0-4.411,3.589-8,8-8s8,3.589,8,8
			C264.005,244.709,260.416,248.298,256.005,248.298z"/>
	</g>
</g>
<g>
	<g>
		<path d="M287.108,277.614c-3.303-4.427-9.569-5.338-13.995-2.034c-4.955,3.697-10.854,5.652-17.06,5.652
			c-6.148,0-12.006-1.925-16.94-5.567c-4.442-3.28-10.704-2.337-13.984,2.105c-3.28,4.443-2.338,10.704,2.105,13.984
			c8.398,6.2,18.364,9.478,28.819,9.478c10.549,0,20.584-3.328,29.021-9.623C289.5,288.306,290.411,282.041,287.108,277.614z"/>
	</g>
</g>
<g>
	<g>
		<path d="M502,473.2h-45.043l-4.484-41.131c-3.733-34.239-28.935-61.764-62.712-68.494l-66.747-13.299
			c-9.537-1.9-16.459-10.338-16.459-20.063v-5.096c10.56,13.477,26.587,21.889,43.882,22.547c0.773,0.029,1.543,0.044,2.312,0.044
			c15.255,0,29.614-5.773,40.649-16.396c10.973-10.563,17.281-24.573,17.927-39.683c12.882-8.695,20.654-23.118,20.654-38.987
			c0-2.181-0.151-4.356-0.453-6.511c9.696-8.859,15.321-21.422,15.321-34.767c0-12.811-5.259-24.938-14.217-33.7
			c7.581-10.62,11.46-23.55,10.843-36.833c-1.382-29.781-25.788-54.294-55.562-55.807c-1.435-0.072-2.865-0.093-4.29-0.064
			c0.184-2.478,0.174-4.977-0.034-7.471c-1.915-22.985-20.717-41.472-43.735-43.003c-12.851-0.848-25.067,3.458-34.283,11.562
			C295.041,29.418,276.533,18.8,255.953,18.8c-20.546,0-39.045,10.618-49.571,27.246c-9.215-8.101-21.425-12.415-34.283-11.561
			c-23.018,1.531-41.819,20.019-43.734,43.003c-0.208,2.495-0.218,4.994-0.034,7.472c-1.425-0.031-2.856-0.009-4.29,0.064
			c-29.774,1.513-54.18,26.025-55.562,55.807c-0.617,13.284,3.263,26.214,10.843,36.833c-8.958,8.761-14.217,20.889-14.217,33.7
			c0,13.345,5.625,25.908,15.321,34.767c-0.301,2.155-0.453,4.33-0.453,6.511c0,15.869,7.772,30.292,20.654,38.987
			c0.646,15.11,6.954,29.12,17.927,39.683c11.591,11.158,26.84,16.964,42.96,16.353c17.386-0.662,33.417-9.171,43.931-22.614v5.162
			c0,9.725-6.922,18.162-16.459,20.063l-66.76,13.301c-33.769,6.728-58.97,34.246-62.71,68.475L55.02,473.2H10
			c-5.523,0-10,4.477-10,10s4.477,10,10,10h492c5.523,0,10-4.477,10-10S507.523,473.2,502,473.2z M160.755,327.679
			c-10.636,0.406-20.69-3.422-28.329-10.776c-7.644-7.358-11.853-17.251-11.853-27.857c0-0.722,0.029-1.513,0.09-2.49
			c0.253-4.026-1.938-7.811-5.555-9.596c-9.335-4.607-15.134-13.925-15.134-24.319c0-2.593,0.373-5.174,1.108-7.671
			c1.231-4.182-0.388-8.679-4.002-11.116c-7.499-5.057-11.975-13.464-11.975-22.491c0-9.7,5.247-18.723,13.692-23.547
			c2.757-1.575,4.602-4.366,4.972-7.519c0.37-3.153-0.78-6.295-3.099-8.465c-8.289-7.758-12.74-18.72-12.213-30.075
			c0.91-19.616,16.986-35.763,36.599-36.759c4.654-0.238,9.239,0.343,13.627,1.722c3.783,1.188,7.912,0.03,10.523-2.955
			c2.612-2.985,3.213-7.23,1.533-10.823c-2.024-4.327-2.847-8.968-2.444-13.794c1.101-13.206,11.905-23.828,25.131-24.708
			c11.169-0.742,21.514,5.284,26.336,15.357c1.818,3.798,5.817,6.046,10.01,5.632c4.19-0.417,7.669-3.414,8.703-7.496
			C222.82,50.78,238.231,38.8,255.998,38.8c17.722,0,33.133,11.98,37.478,29.135c1.034,4.082,4.513,7.079,8.703,7.496
			c4.188,0.415,8.192-1.835,10.01-5.632c4.822-10.072,15.176-16.104,26.335-15.357c13.227,0.88,24.031,11.502,25.132,24.708
			c0.402,4.826-0.42,9.467-2.444,13.794c-1.68,3.592-1.079,7.838,1.533,10.823c2.611,2.984,6.741,4.143,10.523,2.955
			c4.389-1.379,8.974-1.961,13.627-1.722c19.612,0.996,35.688,17.143,36.598,36.759c0.527,11.355-3.924,22.317-12.213,30.075
			c-2.318,2.17-3.468,5.312-3.099,8.465c0.369,3.153,2.215,5.944,4.972,7.519c8.446,4.825,13.692,13.848,13.692,23.547
			c0,9.027-4.477,17.435-11.975,22.491c-3.614,2.437-5.233,6.935-4.002,11.116c0.735,2.497,1.108,5.078,1.108,7.671
			c0,10.394-5.799,19.712-15.134,24.319c-3.618,1.785-5.809,5.569-5.555,9.596c0.062,0.977,0.09,1.768,0.09,2.49
			c0,10.606-4.209,20.499-11.853,27.857c-7.638,7.354-17.686,11.183-28.329,10.776c-12.667-0.482-24.307-7.322-31.123-18.058
			l12.334-7.072c0.182-0.104,0.361-0.215,0.537-0.331c13.089-8.644,21.685-24.018,22.993-41.124c0.02-0.254,0.029-0.508,0.029-0.763
			v-5.992c17.612-0.039,31.929-14.377,31.929-31.998c0-17.621-14.317-31.96-31.929-31.998v-26.756
			c5.26-2.329,10.098-5.633,14.275-9.844c3.89-3.921,3.864-10.252-0.056-14.142c-3.921-3.889-10.252-3.864-14.142,0.056
			c-5.063,5.104-11.808,7.915-18.993,7.915c-7.71,0-15.052-3.338-20.143-9.16c-1.946-2.225-4.78-3.471-7.731-3.415
			c-2.955,0.06-5.732,1.425-7.586,3.727c-11.2,13.912-27.841,21.89-45.657,21.89c-17.774,0-34.391-7.947-45.589-21.803
			c-1.852-2.292-4.62-3.649-7.565-3.712c-2.937-0.061-5.769,1.177-7.716,3.387c-5.087,5.774-12.405,9.085-20.079,9.085
			c-7.093,0-13.778-2.751-18.823-7.746c-3.925-3.886-10.257-3.854-14.142,0.071c-3.886,3.925-3.854,10.256,0.071,14.142
			c4.073,4.032,8.762,7.215,13.847,9.486v26.73c-17.611,0.041-31.925,14.378-31.925,31.998s14.315,31.957,31.925,31.998v6.081
			c0,0.254,0.01,0.508,0.029,0.762c1.313,17.177,9.848,32.55,22.832,41.124c0.179,0.118,0.361,0.23,0.547,0.337l12.484,7.137
			C185.054,320.317,173.454,327.196,160.755,327.679z M355.966,234.338v-23.992c6.584,0.039,11.929,5.404,11.929,11.996
			S362.55,234.3,355.966,234.338z M155.937,210.258v23.992c-6.582-0.041-11.925-5.405-11.925-11.996
			S149.355,210.299,155.937,210.258z M189.573,285.365c-7.643-5.175-12.716-14.639-13.636-25.435v-92.376
			c9.363-0.191,18.382-3.187,25.932-8.496c14.525,13.806,33.728,21.557,54.064,21.557c20.376,0,39.603-7.775,54.135-21.625
			c7.533,5.327,16.537,8.343,25.897,8.561v92.377c-0.909,10.578-6.167,20.271-13.803,25.441l-53.699,30.79
			c-0.183,0.105-0.361,0.215-0.537,0.331c-7.499,4.952-16.452,4.952-23.95,0c-0.179-0.118-0.362-0.231-0.548-0.337L189.573,285.365z
			 M293.92,353.43c-11.923,5.057-24.837,7.709-37.894,7.709c-13.072,0-26-2.658-37.935-7.728c4.652-6.626,7.355-14.66,7.355-23.198
			v-1.303l7.795,4.456c7.021,4.56,14.864,6.839,22.71,6.839c7.847,0,15.696-2.282,22.717-6.842l7.885-4.521v1.372
			C286.553,338.76,289.261,346.8,293.92,353.43z M75.14,473.2l4.258-38.975c2.788-25.511,21.569-46.02,46.737-51.034l66.76-13.301
			c2.817-0.561,5.515-1.417,8.073-2.52c4.612,2.464,9.378,4.615,14.269,6.431c-2.404,10.353-10.674,18.692-21.445,20.838
			l-0.804,0.161c-41.135,8.195-73.859,38.555-85.351,78.4H75.14z M128.657,473.2c10.745-29.944,36.421-52.447,68.242-58.787
			l0.804-0.161c18.292-3.645,32.437-17.637,36.831-35.116c3.789,0.707,7.615,1.226,11.466,1.558v38.967c0,5.523,4.477,10,10,10
			s10-4.477,10-10v-38.963c3.849-0.33,7.675-0.846,11.462-1.552c4.397,17.476,18.539,31.463,36.826,35.106l0.791,0.158
			c31.82,6.34,57.496,28.845,68.24,58.79H128.657z M404.339,473.199L404.339,473.199c-11.492-39.846-44.215-70.207-85.35-78.403
			l-0.791-0.158c-10.761-2.144-19.027-10.474-21.437-20.818c4.901-1.818,9.678-3.971,14.299-6.439
			c2.549,1.097,5.238,1.949,8.044,2.508l66.747,13.299c25.174,5.016,43.957,25.53,46.739,51.048l4.248,38.963H404.339z"/>
	</g>
</g>
<g>
</g>
<g>
</g>
<g>
</g>
<g>
</g>
<g>
</g>
<g>
</g>
<g>
</g>
<g>
</g>
<g>
</g>
<g>
</g>
<g>
</g>
<g>
</g>
<g>
</g>
<g>
</g>
<g>
</g>
</svg>
